<svg id="visual" viewBox="0 0 960 300" width="960" height="300" xmlns="http://www.w3.org/2000/svg" xmlns:xlink="http://www.w3.org/1999/xlink" version="1.1"><path d="M0 178L22.8 185.7C45.7 193.3 91.3 208.7 137 210.5C182.7 212.3 228.3 200.7 274 194.5C319.7 188.3 365.3 187.7 411.2 190.5C457 193.3 503 199.7 548.8 200.2C594.7 200.7 640.3 195.3 686 197C731.7 198.7 777.3 207.3 823 207.7C868.7 208 914.3 200 937.2 196L960 192L960 301L937.2 301C914.3 301 868.7 301 823 301C777.3 301 731.7 301 686 301C640.3 301 594.7 301 548.8 301C503 301 457 301 411.2 301C365.3 301 319.7 301 274 301C228.3 301 182.7 301 137 301C91.3 301 45.7 301 22.8 301L0 301Z" fill="#28b485"></path><path d="M0 213L22.8 217.2C45.7 221.3 91.3 229.7 137 228C182.7 226.3 228.3 214.7 274 210.8C319.7 207 365.3 211 411.2 211.7C457 212.3 503 209.7 548.8 211.7C594.7 213.7 640.3 220.3 686 223C731.7 225.7 777.3 224.3 823 221C868.7 217.7 914.3 212.3 937.2 209.7L960 207L960 301L937.2 301C914.3 301 868.7 301 823 301C777.3 301 731.7 301 686 301C640.3 301 594.7 301 548.8 301C503 301 457 301 411.2 301C365.3 301 319.7 301 274 301C228.3 301 182.7 301 137 301C91.3 301 45.7 301 22.8 301L0 301Z" fill="#3fbd81"></path><path d="M0 253L22.8 253C45.7 253 91.3 253 137 253.3C182.7 253.7 228.3 254.3 274 251.5C319.7 248.7 365.3 242.3 411.2 236.3C457 230.3 503 224.7 548.8 222.8C594.7 221 640.3 223 686 228.7C731.7 234.3 777.3 243.7 823 247.2C868.7 250.7 914.3 248.3 937.2 247.2L960 246L960 301L937.2 301C914.3 301 868.7 301 823 301C777.3 301 731.7 301 686 301C640.3 301 594.7 301 548.8 301C503 301 457 301 411.2 301C365.3 301 319.7 301 274 301C228.3 301 182.7 301 137 301C91.3 301 45.7 301 22.8 301L0 301Z" fill="#54c57c"></path><path d="M0 262L22.8 261.3C45.7 260.7 91.3 259.3 137 258.7C182.7 258 228.3 258 274 258.8C319.7 259.7 365.3 261.3 411.2 263.3C457 265.3 503 267.7 548.8 268.2C594.7 268.7 640.3 267.3 686 266C731.7 264.7 777.3 263.3 823 263.3C868.7 263.3 914.3 264.7 937.2 265.3L960 266L960 301L937.2 301C914.3 301 868.7 301 823 301C777.3 301 731.7 301 686 301C640.3 301 594.7 301 548.8 301C503 301 457 301 411.2 301C365.3 301 319.7 301 274 301C228.3 301 182.7 301 137 301C91.3 301 45.7 301 22.8 301L0 301Z" fill="#69cd76"></path><path d="M0 272L22.8 271.3C45.7 270.7 91.3 269.3 137 268.3C182.7 267.3 228.3 266.7 274 269C319.7 271.3 365.3 276.7 411.2 279.3C457 282 503 282 548.8 282C594.7 282 640.3 282 686 281.3C731.7 280.7 777.3 279.3 823 279.3C868.7 279.3 914.3 280.7 937.2 281.3L960 282L960 301L937.2 301C914.3 301 868.7 301 823 301C777.3 301 731.7 301 686 301C640.3 301 594.7 301 548.8 301C503 301 457 301 411.2 301C365.3 301 319.7 301 274 301C228.3 301 182.7 301 137 301C91.3 301 45.7 301 22.8 301L0 301Z" fill="#7ed56f"></path></svg>